<svg width="109" height="167" viewBox="0 0 109 167" fill="none" xmlns="http://www.w3.org/2000/svg">
<path d="M0 -1H109.471V167L0 114.775V-1Z" fill="black"/>
<path d="M60.4868 17.9527V44.7539H54.022V23.9987H53.865L47.8714 27.6629V22.0619L54.4801 17.9527H60.4868ZM46.4426 53.1416V55.0568H40.6167V65.7539H38.332V53.1416H46.4426ZM59.0857 59.4477C59.0857 60.8067 58.8311 61.9706 58.322 62.9395C57.817 63.9043 57.1273 64.6433 56.2528 65.1565C55.3824 65.6697 54.395 65.9263 53.2906 65.9263C52.1862 65.9263 51.1968 65.6697 50.3223 65.1565C49.4519 64.6392 48.7622 63.8982 48.2531 62.9334C47.7481 61.9645 47.4956 60.8026 47.4956 59.4477C47.4956 58.0888 47.7481 56.9269 48.2531 55.9621C48.7622 54.9932 49.4519 54.2521 50.3223 53.7389C51.1968 53.2258 52.1862 52.9692 53.2906 52.9692C54.395 52.9692 55.3824 53.2258 56.2528 53.7389C57.1273 54.2521 57.817 54.9932 58.322 55.9621C58.8311 56.9269 59.0857 58.0888 59.0857 59.4477ZM56.7886 59.4477C56.7886 58.4911 56.6387 57.6844 56.339 57.0275C56.0434 56.3665 55.6329 55.8677 55.1074 55.531C54.5818 55.1903 53.9763 55.0199 53.2906 55.0199C52.605 55.0199 51.9994 55.1903 51.4739 55.531C50.9484 55.8677 50.5358 56.3665 50.2361 57.0275C49.9405 57.6844 49.7927 58.4911 49.7927 59.4477C49.7927 60.4043 49.9405 61.2131 50.2361 61.8741C50.5358 62.531 50.9484 63.0299 51.4739 63.3706C51.9994 63.7073 52.605 63.8756 53.2906 63.8756C53.9763 63.8756 54.5818 63.7073 55.1074 63.3706C55.6329 63.0299 56.0434 62.531 56.339 61.8741C56.6387 61.2131 56.7886 60.4043 56.7886 59.4477ZM60.4266 68.7961V63.8879H61.2703C61.5536 63.6621 61.8184 63.3439 62.0648 62.9334C62.3111 62.5228 62.5205 61.9604 62.6929 61.246C62.8654 60.5316 62.9844 59.6079 63.0501 58.4747L63.3827 53.1416H71.4439V63.8879H72.8481V68.7838H70.6557V65.7539H62.619V68.7961H60.4266ZM63.9307 63.8879H69.2516V55.0568H65.4395L65.2425 58.4747C65.1891 59.3328 65.1029 60.1005 64.9838 60.778C64.8648 61.4554 64.7149 62.0527 64.5343 62.57C64.3536 63.0832 64.1524 63.5225 63.9307 63.8879ZM21.1043 80.9299V82.4656H15.5156V92.7539H13.7316V80.9299H21.1043ZM22.7166 92.7539H20.8229L25.0779 80.9299H27.139L31.3941 92.7539H29.5004L26.1575 83.0776H26.0652L22.7166 92.7539ZM23.0341 88.1236H29.1771V89.6247H23.0341V88.1236ZM33.1016 92.7539V80.9299H37.3162C38.2361 80.9299 38.9982 81.0973 39.6025 81.4322C40.2068 81.767 40.659 82.225 40.9593 82.8062C41.2595 83.3836 41.4096 84.0341 41.4096 84.7577C41.4096 85.4851 41.2575 86.1394 40.9535 86.7206C40.6533 87.298 40.1991 87.756 39.5909 88.0947C38.9867 88.4296 38.2265 88.597 37.3104 88.597H34.4121V87.0844H37.1488C37.73 87.0844 38.2015 86.9843 38.5633 86.7841C38.9251 86.5802 39.1907 86.303 39.36 85.9528C39.5294 85.6025 39.614 85.2041 39.614 84.7577C39.614 84.3112 39.5294 83.9147 39.36 83.5683C39.1907 83.2219 38.9231 82.9506 38.5575 82.7543C38.1957 82.558 37.7184 82.4598 37.1257 82.4598H34.8856V92.7539H33.1016ZM43.2455 92.7539H41.3518L45.6069 80.9299H47.668L51.9231 92.7539H50.0294L46.6865 83.0776H46.5942L43.2455 92.7539ZM43.5631 88.1236H49.706V89.6247H43.5631V88.1236ZM53.6306 92.7539V80.9299H55.4146V86.0682H61.3093V80.9299H63.099V92.7539H61.3093V87.5982H55.4146V92.7539H53.6306ZM65.114 82.4656V80.9299H74.2649V82.4656H70.5757V92.7539H68.7974V82.4656H65.114ZM76.2871 80.9299H78.0537V89.6131H78.1634L84.1794 80.9299H85.8306V92.7539H84.0466V84.0822H83.9369L77.9325 92.7539H76.2871V80.9299ZM96.816 92.7539H95.0263V82.4598H92.7862C92.2011 82.4598 91.7258 82.5484 91.3601 82.7254C90.9945 82.8986 90.727 83.1488 90.5576 83.476C90.3883 83.8031 90.3036 84.1899 90.3036 84.6364C90.3036 85.0791 90.3883 85.4582 90.5576 85.7738C90.727 86.0894 90.9925 86.33 91.3543 86.4955C91.7162 86.661 92.1877 86.7437 92.7688 86.7437H95.7999V88.2795H92.6014C91.6892 88.2795 90.929 88.1274 90.3209 87.8234C89.7166 87.5193 89.2624 87.094 88.9584 86.5474C88.6581 85.997 88.508 85.36 88.508 84.6364C88.508 83.909 88.6581 83.2681 88.9584 82.7139C89.2586 82.1558 89.7108 81.7189 90.3151 81.4033C90.9233 81.0877 91.6834 80.9299 92.5956 80.9299H96.816V92.7539ZM90.9791 87.4192H92.9536L90.0842 92.7539H88.0577L90.9791 87.4192Z" fill="#FDD65D"/>
<path d="M24.2559 71.6191H91.6616" stroke="#FFDF0C" stroke-width="1.08387"/>
</svg>
