<svg width="90" height="90" viewBox="0 0 90 90" fill="none" xmlns="http://www.w3.org/2000/svg">
<circle cx="45" cy="45" r="45" fill="white"/>
<path d="M45.5 78.25C40.8312 78.25 36.4437 77.3641 32.3375 75.5922C28.2312 73.8203 24.6594 71.4156 21.6219 68.3781C18.5844 65.3406 16.1797 61.7687 14.4078 57.6625C12.6359 53.5562 11.75 49.1687 11.75 44.5C11.75 39.8312 12.6359 35.4437 14.4078 31.3375C16.1797 27.2312 18.5844 23.6594 21.6219 20.6219C24.6594 17.5844 28.2312 15.1797 32.3375 13.4078C36.4437 11.6359 40.8312 10.75 45.5 10.75C49.1562 10.75 52.6156 11.2844 55.8781 12.3531C59.1406 13.4219 62.15 14.9125 64.9062 16.825L60.0125 21.8031C57.875 20.4531 55.5969 19.3984 53.1781 18.6391C50.7594 17.8797 48.2 17.5 45.5 17.5C38.0187 17.5 31.6484 20.1297 26.3891 25.3891C21.1297 30.6484 18.5 37.0187 18.5 44.5C18.5 51.9812 21.1297 58.3516 26.3891 63.6109C31.6484 68.8703 38.0187 71.5 45.5 71.5C52.9812 71.5 59.3516 68.8703 64.6109 63.6109C69.8703 58.3516 72.5 51.9812 72.5 44.5C72.5 43.4875 72.4437 42.475 72.3312 41.4625C72.2187 40.45 72.05 39.4656 71.825 38.5094L77.3094 33.025C77.9281 34.825 78.4062 36.6812 78.7437 38.5937C79.0812 40.5062 79.25 42.475 79.25 44.5C79.25 49.1687 78.3641 53.5562 76.5922 57.6625C74.8203 61.7687 72.4156 65.3406 69.3781 68.3781C66.3406 71.4156 62.7687 73.8203 58.6625 75.5922C54.5562 77.3641 50.1687 78.25 45.5 78.25ZM40.775 60.025L26.4312 45.6812L31.1562 40.9562L40.775 50.575L74.525 16.7406L79.25 21.4656L40.775 60.025Z" fill="#282828"/>
</svg>
